<svg width="250" height="250" viewBox="0 0 250 250" fill="none" xmlns="http://www.w3.org/2000/svg">
<path d="M66.6373 212.021L21.2029 186.18L117.613 129.254L140.884 143.111L176.714 121.764L228.059 152.099V185.431L170.804 151.35L66.6373 212.021Z" fill="#51ADE5"/>
<path d="M92.1247 226.627C86.5839 223.381 74.1725 216.366 73.286 215.766L170.065 158.84L221.779 189.176L158.983 226.627L125.739 205.655L92.1247 226.627Z" fill="#2B7FA6"/>
<path d="M126.108 245.728L102.098 231.871L127.216 216.89L151.226 231.122L126.108 245.728Z" fill="#3871C1"/>
<path d="M228.059 119.142L181.516 91.4281V63.3396L159.353 50.6062V24.0158L228.798 63.3396L228.059 119.142Z" fill="#A6A6A6"/>
<path d="M20.8333 175.319V81.3161L45.5822 95.173V115.022L69.5923 110.154V131.126L45.5822 141.238V161.836L20.8333 175.319Z" fill="#A6A6A6"/>
<path d="M44.4727 77.5711L21.2014 63.7142L124.26 4.16666V31.5061L109.854 39.7454V68.2083L91.0154 79.0692L70.3297 62.2161L44.4727 77.5711Z" fill="#A6A6A6"/>
<path d="M156.398 102.664L108.747 124.719V80.6087L156.398 102.664Z" fill="#FFE100"/>
<path d="M126.108 245.353L21.5719 186.555V64.0892L124.261 4.54172L229.167 63.7147L228.059 185.431L126.108 245.353Z" stroke="#47556C" stroke-width="2"/>
</svg>
