<svg width="64" height="64" viewBox="0 0 64 64" fill="none" xmlns="http://www.w3.org/2000/svg">
<path d="M17.0592 54.2775L5.42798 47.6621L30.1089 33.0891L36.0663 36.6365L45.2389 31.1716L58.3831 38.9375V47.4704L43.7259 38.7457L17.0592 54.2775Z" fill="#51ADE5"/>
<path d="M23.5839 58.0166C22.1655 57.1856 18.9882 55.3896 18.7612 55.2362L43.5367 40.6631L56.7755 48.429L40.6998 58.0166L32.1891 52.6475L23.5839 58.0166Z" fill="#2B7FA6"/>
<path d="M32.2837 62.9063L26.1371 59.3589L32.5674 55.5239L38.7139 59.1671L32.2837 62.9063Z" fill="#3871C1"/>
<path d="M58.3831 30.5003L46.4682 23.4056V16.2149L40.7944 12.9552V6.14804L58.5722 16.2149L58.3831 30.5003Z" fill="#A6A6A6"/>
<path d="M5.33325 44.8816V20.8169L11.669 24.3643V29.4457L17.8155 28.1993V33.5683L11.669 36.1569V41.4301L5.33325 44.8816Z" fill="#A6A6A6"/>
<path d="M11.385 19.8582L5.4275 16.3108L31.8105 1.06665V8.06554L28.1226 10.1748V17.4613L23.2999 20.2417L18.0043 15.9273L11.385 19.8582Z" fill="#A6A6A6"/>
<path d="M40.0379 26.2819L27.8393 31.928V20.6358L40.0379 26.2819Z" fill="#FFE100"/>
<path d="M32.2837 62.8104L5.52246 47.758V16.4068L31.8109 1.16266L58.6667 16.3109L58.383 47.4704L32.2837 62.8104Z" stroke="#47556C" stroke-width="2"/>
</svg>
